Coordinates
version=1
nRows=24
nColumns=38
inDegrees=no

Units are S.I. units (second, meters, Newtons, ...)
If the header above contains a line with 'inDegrees', this indicates whether rotational values are in degrees (yes) or radians (no).

endheader
time	pelvis_tilt	pelvis_list	pelvis_rotation	pelvis_tx	pelvis_ty	pelvis_tz	hip_flexion_r	hip_adduction_r	hip_rotation_r	knee_angle_r	ankle_angle_r	subtalar_angle_r	mtp_angle_r	hip_flexion_l	hip_adduction_l	hip_rotation_l	knee_angle_l	ankle_angle_l	subtalar_angle_l	mtp_angle_l	lumbar_extension	lumbar_bending	lumbar_rotation	arm_flex_r	arm_add_r	arm_rot_r	elbow_flex_r	pro_sup_r	wrist_flex_r	wrist_dev_r	arm_flex_l	arm_add_l	arm_rot_l	elbow_flex_l	pro_sup_l	wrist_flex_l	wrist_dev_l
0.62	2.96518	1.22917	1.55581	0.677236	0.207482	0.981001	0.289011	0.037083	0.0700346	0.804666	0.252815	0	0	0.811304	-0.103112	-0.193994	0.590377	0.139793	0	0	0.437193	0.0540642	0.256857	-0.0734055	-0.558829	0.533611	0.781139	0.989183	0	0	-0.280194	-0.159081	0.657411	0.179241	1.23984	0	0
0.63	2.93875	1.23135	1.58193	0.677085	0.193628	0.981211	0.288087	0.0251046	0.0748097	0.825431	0.229932	0	0	0.805273	-0.0947186	-0.1976	0.600966	0.126947	0	0	0.439832	0.0395208	0.258768	-0.0765525	-0.547569	0.544484	0.767448	0.990052	0	0	-0.281704	-0.163509	0.665703	0.177702	1.23155	0	0
0.64	2.91109	1.23194	1.61116	0.677031	0.179996	0.981558	0.292522	0.0130905	0.0803573	0.851656	0.203628	0	0	0.800807	-0.0856084	-0.192639	0.611201	0.1112	0	0	0.443492	0.0233756	0.259013	-0.0796452	-0.535039	0.555638	0.752619	0.992194	0	0	-0.282521	-0.168632	0.673834	0.176728	1.2238	0	0
0.65	2.88517	1.23307	1.6407	0.67729	0.166463	0.982125	0.299461	0.0012645	0.0848814	0.881686	0.172586	0	0	0.794446	-0.0754772	-0.182311	0.620747	0.100136	0	0	0.445781	0.0075429	0.257406	-0.0839524	-0.523117	0.565134	0.738922	0.993054	0	0	-0.281755	-0.172966	0.682277	0.175099	1.21597	0	0
0.66	2.8609	1.23509	1.6711	0.678037	0.153003	0.982906	0.308268	-0.0111722	0.0867888	0.914382	0.135401	0	0	0.786492	-0.0630871	-0.172285	0.630395	0.0971865	0	0	0.446333	-0.00758581	0.253708	-0.090128	-0.513139	0.573418	0.728031	0.992644	0	0	-0.279247	-0.176175	0.691265	0.172856	1.20698	0	0
0.67	2.8382	1.23811	1.70184	0.679101	0.139734	0.983855	0.318803	-0.0237294	0.0868973	0.949124	0.0909135	0	0	0.77771	-0.0496004	-0.165585	0.640493	0.0958336	0	0	0.444897	-0.0218707	0.248191	-0.0978313	-0.505193	0.581078	0.720468	0.990951	0	0	-0.275603	-0.179335	0.702365	0.1711	1.19847	0	0
0.68	2.81836	1.24179	1.7309	0.680254	0.126679	0.984936	0.330704	-0.0350136	0.0864527	0.984038	0.0380538	0	0	0.767882	-0.0367444	-0.16196	0.649453	0.0931436	0	0	0.442127	-0.0348306	0.240719	-0.105911	-0.498821	0.590067	0.715242	0.987007	0	0	-0.270949	-0.18245	0.716374	0.169672	1.18822	0	0
0.69	2.80245	1.24678	1.75632	0.681335	0.113898	0.986135	0.342999	-0.0433642	0.0870371	1.01865	-0.0161457	0	0	0.755118	-0.0253529	-0.159247	0.655746	0.0914678	0	0	0.437124	-0.0458404	0.231594	-0.113883	-0.493646	0.59934	0.712032	0.979981	0	0	-0.26532	-0.18552	0.729618	0.169165	1.17758	0	0
0.7	2.78961	1.25322	1.77863	0.682323	0.101515	0.987417	0.355781	-0.048465	0.0888261	1.05382	-0.0700368	0	0	0.739176	-0.0151856	-0.157114	0.660229	0.0934731	0	0	0.429346	-0.0550892	0.220932	-0.120777	-0.489719	0.609985	0.710545	0.969868	0	0	-0.258094	-0.188142	0.741432	0.169182	1.16652	0	0
0.71	2.77801	1.25917	1.79959	0.683333	0.0894707	0.988633	0.37135	-0.0517862	0.0911637	1.09034	-0.125034	0	0	0.722582	-0.00551786	-0.157041	0.664041	0.0986964	0	0	0.421236	-0.0634133	0.209362	-0.127113	-0.487102	0.622473	0.711019	0.958469	0	0	-0.249963	-0.190599	0.752162	0.169826	1.15719	0	0
0.72	2.76745	1.26412	1.81922	0.684275	0.0776211	0.989795	0.389667	-0.0536672	0.0939778	1.12682	-0.183614	0	0	0.706256	0.00323985	-0.159989	0.667825	0.105595	0	0	0.413775	-0.071198	0.197327	-0.132833	-0.484847	0.636854	0.712026	0.947328	0	0	-0.241747	-0.193456	0.761662	0.171382	1.15147	0	0
0.73	2.75732	1.26878	1.83792	0.685106	0.065967	0.990998	0.409839	-0.0546014	0.0970109	1.16253	-0.244874	0	0	0.689542	0.0111305	-0.164971	0.671574	0.113801	0	0	0.406185	-0.0785183	0.184844	-0.137101	-0.482265	0.653189	0.712058	0.937251	0	0	-0.233408	-0.196681	0.768148	0.174137	1.14855	0	0
0.74	2.74676	1.27447	1.85598	0.685852	0.0545271	0.992391	0.430323	-0.0549705	0.100263	1.19686	-0.306599	0	0	0.670791	0.017942	-0.172023	0.674888	0.1233	0	0	0.396866	-0.084818	0.171948	-0.139222	-0.479452	0.671439	0.710695	0.929288	0	0	-0.224265	-0.199549	0.766169	0.178562	1.14067	0	0
0.75	2.73647	1.28076	1.87318	0.686511	0.0432422	0.993921	0.451188	-0.0550664	0.103245	1.23	-0.362053	0	0	0.650739	0.0237902	-0.180247	0.677708	0.133362	0	0	0.386732	-0.0902469	0.158856	-0.140098	-0.476277	0.690906	0.708187	0.923558	0	0	-0.214848	-0.202577	0.762931	0.183692	1.13567	0	0
0.76	2.72974	1.28728	1.88704	0.687083	0.0320599	0.995509	0.472371	-0.0540563	0.105302	1.26203	-0.401524	0	0	0.630769	0.0280789	-0.187267	0.680078	0.142282	0	0	0.376596	-0.0942929	0.145064	-0.141162	-0.472596	0.708794	0.705299	0.921048	0	0	-0.205583	-0.206171	0.759423	0.189933	1.13499	0	0
0.77	2.7285	1.29366	1.89558	0.687592	0.0210316	0.997099	0.494348	-0.0516894	0.105684	1.29293	-0.418471	0	0	0.611734	0.0304888	-0.190714	0.681502	0.148913	0	0	0.366871	-0.096391	0.130812	-0.143177	-0.468633	0.723307	0.702611	0.92224	0	0	-0.195886	-0.209871	0.75545	0.197012	1.13551	0	0
0.78	2.72954	1.30049	1.90146	0.687985	0.0101422	0.998754	0.516337	-0.0489743	0.104282	1.32186	-0.421857	0	0	0.592327	0.0315141	-0.190786	0.680778	0.154383	0	0	0.357049	-0.0971084	0.115986	-0.143791	-0.464839	0.740369	0.6989	0.924076	0	0	-0.186815	-0.214331	0.748486	0.206306	1.13896	0	0
0.79	2.73467	1.30624	1.90369	0.688355	-0.000695689	1.00039	0.539693	-0.0468802	0.10057	1.34857	-0.412463	0	0	0.573535	0.0320881	-0.18821	0.675892	0.156888	0	0	0.349144	-0.096854	0.100672	-0.144905	-0.460699	0.756751	0.694373	0.925475	0	0	-0.178558	-0.219462	0.737687	0.217483	1.1461	0	0
0.8	2.74776	1.31025	1.89845	0.688888	-0.0113621	1.00175	0.56606	-0.0451495	0.0947938	1.37314	-0.4007	0	0	0.55832	0.0320771	-0.181388	0.671819	0.159029	0	0	0.343884	-0.0944257	0.0851385	-0.148373	-0.458046	0.769576	0.69241	0.927139	0	0	-0.170874	-0.224854	0.725078	0.230779	1.15586	0	0
0.81	2.76206	1.31437	1.89069	0.689294	-0.0219322	1.00312	0.592733	-0.0435926	0.0892296	1.39418	-0.39248	0	0	0.542914	0.0309045	-0.175473	0.667777	0.161405	0	0	0.338742	-0.0909326	0.0711944	-0.152714	-0.455511	0.779999	0.690653	0.928598	0	0	-0.163448	-0.230965	0.711351	0.245994	1.16857	0	0
0.82	2.77698	1.31822	1.88106	0.689564	-0.0324589	1.00449	0.619462	-0.0422463	0.0842775	1.41092	-0.388548	0	0	0.526855	0.0285873	-0.172563	0.663001	0.16412	0	0	0.334054	-0.086748	0.0589883	-0.158006	-0.452953	0.788236	0.688892	0.929517	0	0	-0.156487	-0.237686	0.696199	0.26296	1.18356	0	0
0.83	2.79328	1.32253	1.87011	0.689837	-0.0429083	1.00589	0.645034	-0.0413436	0.0787473	1.4234	-0.385751	0	0	0.509896	0.0255191	-0.171548	0.658299	0.167497	0	0	0.328864	-0.0818712	0.04695	-0.164056	-0.450508	0.794057	0.687213	0.929607	0	0	-0.149633	-0.244785	0.678942	0.281834	1.19822	0	0
0.84	2.81441	1.32756	1.85636	0.690271	-0.0531423	1.00727	0.669196	-0.0411137	0.070435	1.43215	-0.380107	0	0	0.493821	0.021679	-0.170001	0.65688	0.171929	0	0	0.322714	-0.0761517	0.0331175	-0.170637	-0.448205	0.79705	0.685662	0.927677	0	0	-0.142849	-0.252522	0.661294	0.302665	1.21327	0	0
0.85	2.83301	1.33304	1.84257	0.690541	-0.0633045	1.00865	0.692001	-0.0404775	0.0635736	1.43715	-0.368841	0	0	0.47603	0.0166749	-0.17359	0.65487	0.177074	0	0	0.315991	-0.0700206	0.022298	-0.177652	-0.446126	0.798455	0.684267	0.924068	0	0	-0.136212	-0.260516	0.643812	0.324469	1.22833	0	0
